<?xml version="1.0" encoding="utf-8"?>
<!-- Generator: Adobe Illustrator 22.0.1, SVG Export Plug-In . SVG Version: 6.00 Build 0)  -->
<svg version="1.1" id="Layer_1" xmlns="http://www.w3.org/2000/svg" xmlns:xlink="http://www.w3.org/1999/xlink" x="0px" y="0px"
	 viewBox="0 0 129.1 37.2" style="enable-background:new 0 0 129.1 37.2;" xml:space="preserve">
<style type="text/css">
	.st0{fill:#221F1F;}
	.st1{fill:#007BC2;}
	.st2{fill:#DBDDDF;}
	.st3{fill:#9DA1A2;}
</style>
<title>Asset 15kia</title>
<path class="st0" d="M73.3,16.2c-0.5,0.1-1,0.1-1.6,0.1c-0.6,0-1.3-0.1-1.9-0.3c-0.5-0.2-1-0.5-1.4-0.9c-0.4-0.4-0.7-0.9-0.9-1.4
	c-0.2-0.6-0.3-1.3-0.3-1.9c0-0.7,0.1-1.4,0.3-2c0.4-1.2,1.3-2.1,2.5-2.6c0.7-0.3,1.4-0.4,2.1-0.4c0.5,0,0.9,0,1.4,0.1
	c0.4,0.1,0.8,0.2,1.2,0.3l-0.3,1.1c-0.4-0.1-0.8-0.3-1.2-0.3C72.8,8,72.4,8,72,8c-0.5,0-0.9,0.1-1.3,0.2c-0.4,0.1-0.8,0.4-1.1,0.7
	c-0.3,0.3-0.6,0.7-0.8,1.2c-0.2,0.5-0.3,1.1-0.3,1.6c0,0.5,0.1,1,0.2,1.5c0.1,0.4,0.4,0.8,0.7,1.1c0.3,0.3,0.7,0.5,1.1,0.7
	c0.5,0.2,0.9,0.2,1.4,0.2c0.3,0,0.6,0,0.9-0.1c0.3,0,0.5-0.1,0.8-0.2v-3.5h1.2v4.3C74.3,16,73.8,16.2,73.3,16.2z"/>
<path class="st0" d="M86.4,16.2l-3-4.1h-0.2v4.1H82V7h1h1.3c0.4,0,0.8,0,1.3,0.1c0.4,0.1,0.7,0.2,1,0.4c0.3,0.2,0.5,0.4,0.7,0.7
	c0.2,0.3,0.2,0.7,0.2,1.1c0,0.4-0.1,0.7-0.2,1.1c-0.1,0.3-0.3,0.6-0.6,0.8c-0.3,0.2-0.5,0.4-0.9,0.5c-0.3,0.1-0.7,0.2-1,0.2
	c0.1,0.2,0.3,0.3,0.4,0.5s0.3,0.3,0.4,0.5l2.4,3.3H86.4z M86.1,9.5c0-0.5-0.2-0.9-0.5-1.2c-0.5-0.3-1-0.4-1.5-0.3h-0.4h-0.4v3.1h0.3
	H84c0.6,0,1.1-0.1,1.6-0.5C85.9,10.4,86.1,10,86.1,9.5z"/>
<path class="st0" d="M100.7,15.5c-0.8,0.7-1.7,1-2.8,0.9c-0.6,0-1.2-0.1-1.8-0.3c-0.4-0.2-0.7-0.4-1-0.7c-0.2-0.3-0.4-0.6-0.5-1
	c-0.1-0.4-0.1-0.8-0.1-1.2V7h1.2v6.1c0,0.3,0,0.6,0.1,0.9c0.1,0.3,0.2,0.5,0.3,0.7c0.2,0.2,0.4,0.4,0.7,0.5c0.4,0.1,0.8,0.2,1.1,0.2
	c0.6,0.1,1.3-0.2,1.8-0.6c0.5-0.6,0.7-1.3,0.6-2V7h1.2v5.7C101.7,13.7,101.4,14.7,100.7,15.5z"/>
<path class="st0" d="M114.7,9.7c0,0.4-0.1,0.9-0.3,1.2c-0.2,0.4-0.4,0.7-0.7,1c-0.3,0.3-0.7,0.5-1.1,0.6c-0.5,0.2-1,0.2-1.4,0.2
	h-0.4h-0.4v3.5h-1.2V7h1.1h1.2c0.9-0.1,1.8,0.2,2.4,0.7C114.4,8.2,114.7,8.9,114.7,9.7z M113.4,9.8c0-0.5-0.2-1-0.5-1.3
	c-0.5-0.3-1-0.5-1.6-0.4h-0.5c-0.1,0-0.3,0-0.4,0v3.7h0.4h0.4c0.6,0,1.2-0.2,1.6-0.5C113.2,10.8,113.4,10.3,113.4,9.8z"/>
<path class="st0" d="M129,11.5c0,0.7-0.1,1.4-0.4,2.1c-0.2,0.6-0.5,1.1-0.9,1.5c-0.4,0.4-0.9,0.7-1.4,0.9c-1.1,0.4-2.4,0.4-3.5,0
	c-0.5-0.2-0.9-0.5-1.3-0.9c-0.4-0.4-0.6-0.9-0.8-1.5c-0.2-0.6-0.3-1.3-0.2-1.9c0-0.7,0.1-1.4,0.3-2.1c0.2-0.6,0.5-1.1,0.9-1.5
	c0.4-0.4,0.9-0.8,1.4-1c0.5-0.2,1.1-0.3,1.7-0.3c0.6,0,1.2,0.1,1.7,0.3c0.5,0.2,0.9,0.5,1.3,0.9c0.4,0.4,0.7,0.9,0.8,1.5
	C128.9,10.1,129,10.8,129,11.5z M127.7,11.7c0.1-1-0.2-1.9-0.8-2.8c-0.8-0.9-2.1-1.2-3.3-0.7c-0.4,0.2-0.7,0.4-0.9,0.7
	c-0.3,0.3-0.5,0.7-0.6,1.1c-0.2,0.5-0.2,1-0.2,1.5c0,0.5,0.1,1,0.2,1.5c0.1,0.4,0.3,0.8,0.5,1.2c0.2,0.3,0.5,0.6,0.9,0.8
	c0.4,0.2,0.8,0.3,1.3,0.3c0.4,0,0.7-0.1,1.1-0.2c0.4-0.2,0.7-0.4,0.9-0.7c0.3-0.3,0.5-0.7,0.7-1.1C127.6,12.7,127.7,12.2,127.7,11.7
	L127.7,11.7z"/>
<path class="st0" d="M73.4,23.6c0,0.4-0.1,0.9-0.3,1.2c-0.2,0.4-0.4,0.7-0.7,1c-0.3,0.3-0.7,0.5-1.1,0.6c-0.5,0.2-0.9,0.2-1.4,0.2
	h-0.4c-0.1,0-0.2,0-0.4,0v3.5h-1.3v-9.3l1.1,0h1.2c0.9-0.1,1.7,0.2,2.4,0.7C73.1,22.1,73.4,22.8,73.4,23.6z M72.1,23.7
	c0-0.5-0.2-1-0.5-1.3c-0.5-0.4-1-0.5-1.6-0.5h-0.5h-0.4v3.7c0.1,0,0.2,0,0.4,0h0.4c0.6,0,1.2-0.2,1.6-0.5
	C71.9,24.7,72.1,24.2,72.1,23.7z"/>
<path class="st0" d="M79.4,30.1v-9.2h4.8v1h-3.5v2.9h3.3v1h-3.3v3.2h3.5v1L79.4,30.1z"/>
<path class="st0" d="M90.6,30.1v-9.2h1.3v8.1h3.3v1.1H90.6z"/>
<path class="st0" d="M100.8,30.1v-9.2h1.3v8.1h3.3v1.1H100.8z"/>
<path class="st0" d="M116.8,30.1L116,28h-3.9l-0.8,2.2H110l3.4-9.2h1.4l3.4,9.2L116.8,30.1z M114.4,23.6c-0.1-0.2-0.2-0.4-0.2-0.6
	l-0.2-0.6l0,0l-0.2,0.6c-0.1,0.2-0.1,0.4-0.2,0.6l-1.2,3.4h3.3L114.4,23.6z"/>
<path class="st0" d="M128.9,27.4c0,0.8-0.3,1.5-0.9,2c-0.3,0.3-0.7,0.5-1.1,0.6c-0.5,0.1-0.9,0.2-1.4,0.2c-0.4,0-0.7,0-1.1-0.1
	c-0.3,0-0.7-0.1-1-0.2l0.2-1.2c0.3,0.1,0.6,0.2,0.9,0.3c0.3,0.1,0.7,0.1,1,0.1c0.3,0,0.5,0,0.8-0.1c0.2-0.1,0.4-0.1,0.6-0.3
	c0.2-0.1,0.3-0.3,0.4-0.5c0.1-0.2,0.2-0.5,0.2-0.7c0-0.3-0.1-0.6-0.3-0.8c-0.2-0.2-0.5-0.4-0.8-0.5c-0.3-0.2-0.7-0.3-1-0.4
	c-0.3-0.1-0.7-0.3-1-0.5c-0.3-0.2-0.6-0.5-0.8-0.8c-0.2-0.4-0.3-0.8-0.3-1.2c0-0.4,0.1-0.7,0.2-1.1c0.1-0.3,0.4-0.6,0.6-0.8
	c0.3-0.2,0.6-0.4,1-0.5c0.4-0.1,0.9-0.2,1.4-0.2c0.3,0,0.6,0,0.8,0c0.3,0,0.6,0.1,0.8,0.1L128,22c-0.3-0.1-0.5-0.1-0.8-0.2
	c-0.3,0-0.5-0.1-0.8-0.1c-0.5,0-1,0.1-1.4,0.4c-0.3,0.3-0.5,0.6-0.5,1c0,0.3,0.1,0.6,0.3,0.8c0.2,0.2,0.5,0.4,0.8,0.5
	c0.3,0.2,0.7,0.3,1,0.4c0.4,0.1,0.7,0.3,1,0.5c0.3,0.2,0.6,0.4,0.8,0.8C128.7,26.5,128.9,27,128.9,27.4z"/>
<path class="st1" d="M60.9,10.3c0.3,0.9,0.4,1.8,0.4,2.7c0,8.8-12.2,17.6-27.2,19.6S6.7,29.2,6.7,20.4S18.9,2.8,34,0.7
	c3.7-0.5,7.5-0.5,11.3-0.1c-4.8-0.8-9.7-0.9-14.5-0.2C13.8,2.8,0,12.8,0,22.8S13.9,39,30.9,36.7s30.8-12.3,30.8-22.3
	C61.7,13,61.4,11.6,60.9,10.3z"/>
<path class="st2" d="M49.2,12c0.1,0.3,0.2,0.7,0.2,1.1c0,3.5-4.9,7.1-10.9,7.9s-11-1.4-11-4.9s4.9-7,10.9-7.9c1.5-0.2,3-0.2,4.6,0
	c-1.9-0.3-3.9-0.3-5.8-0.1C30.3,9,24.8,13,24.8,17s5.6,6.5,12.4,5.6s12.4-4.9,12.4-8.9C49.6,13.1,49.5,12.5,49.2,12z"/>
<path class="st3" d="M19,20.3c-0.2-0.6-0.3-1.2-0.3-1.8c0-5.9,8.2-11.8,18.3-13.2s18.4,2.3,18.4,8.2s-8.2,11.8-18.3,13.2
	c-2.5,0.4-5.1,0.4-7.6,0.1c3.2,0.5,6.5,0.6,9.7,0.1c11.5-1.5,20.7-8.2,20.7-15S50.6,1,39.1,2.6s-20.7,8.2-20.7,15
	C18.5,18.5,18.6,19.4,19,20.3z"/>
<path class="st1" d="M42.1,14.5c0,1.1-1.6,2.3-3.5,2.5s-3.5-0.5-3.5-1.6s1.6-2.3,3.5-2.5S42.1,13.4,42.1,14.5z"/>
</svg>
